<svg width="37" height="27" viewBox="0 0 37 27" fill="none" xmlns="http://www.w3.org/2000/svg">
<path fill-rule="evenodd" clip-rule="evenodd" d="M0.930626 6.91338C0.748457 9.23174 0.655628 11.5563 0.652344 13.8818C0.652344 16.5222 0.781777 19.0057 0.946805 21.0653C1.18302 24.0051 3.42384 26.2524 6.31506 26.453C9.21761 26.6552 13.2802 26.8251 18.4494 26.8251C23.6187 26.8251 27.6813 26.6552 30.5838 26.453C33.4751 26.2524 35.7159 24.0051 35.9521 21.0653C36.1171 19.0057 36.2466 16.5222 36.2466 13.8818C36.2466 11.3319 36.1268 8.93093 35.9683 6.91338C35.8675 5.46193 35.2454 4.09585 34.2166 3.06705C33.1878 2.03825 31.8217 1.41612 30.3703 1.31538C27.4936 1.11153 23.5685 0.938408 18.4494 0.938408C13.3304 0.938408 9.40367 1.11153 6.52863 1.31538C5.07718 1.41612 3.71109 2.03825 2.6823 3.06705C1.6535 4.09585 1.03137 5.46193 0.930626 6.91338ZM24.1122 13.8818L15.2136 9.028V18.7355L24.1122 13.8818Z" fill="#10254C"/>
</svg>
