<svg width="33" height="32" viewBox="0 0 33 32" fill="none" xmlns="http://www.w3.org/2000/svg">
<path fill-rule="evenodd" clip-rule="evenodd" d="M16.6086 31.2044C25.3361 31.2044 32.4115 24.3311 32.4115 15.853C32.4115 7.3748 25.3361 0.501556 16.6086 0.501556C7.88107 0.501556 0.805664 7.3748 0.805664 15.853C0.805664 24.3311 7.88107 31.2044 16.6086 31.2044ZM7.97876 11.8881C9.68835 11.4457 12.6852 10.9824 15.9808 11.0815C19.285 11.1806 22.7473 11.8421 25.5013 13.5209C25.8242 13.7177 26.2144 13.7817 26.5859 13.699C26.9574 13.6163 27.2799 13.3936 27.4824 13.0799C27.685 12.7663 27.7509 12.3873 27.6658 12.0264C27.5806 11.6654 27.3514 11.3522 27.0285 11.1554C23.6768 9.1137 19.6471 8.39916 16.0699 8.2917C12.4812 8.18424 9.20564 8.68246 7.24033 9.19046C6.87208 9.28558 6.5578 9.51892 6.36665 9.83913C6.1755 10.1594 6.12312 10.5402 6.22104 10.898C6.31896 11.2557 6.55916 11.561 6.8888 11.7467C7.21843 11.9324 7.6105 11.9832 7.97876 11.8881ZM15.2136 16.6471C12.5027 16.5549 10.1136 16.968 8.79333 17.356C8.42961 17.4603 8.03818 17.4207 7.70441 17.2458C7.37065 17.0709 7.12161 16.7749 7.01163 16.4223C6.90165 16.0697 6.93964 15.6892 7.11731 15.3637C7.29499 15.0382 7.59793 14.7942 7.96008 14.6849C9.57916 14.209 12.2843 13.754 15.3156 13.8587C18.3498 13.9633 21.8192 14.6318 24.8663 16.5089C25.0258 16.6069 25.1637 16.7345 25.2724 16.8844C25.3811 17.0342 25.4583 17.2034 25.4996 17.3822C25.541 17.5611 25.5457 17.7461 25.5134 17.9267C25.4812 18.1073 25.4126 18.2799 25.3117 18.4348C25.2108 18.5897 25.0794 18.7237 24.9252 18.8293C24.7709 18.9348 24.5968 19.0098 24.4127 19.05C24.2286 19.0902 24.0381 19.0947 23.8522 19.0634C23.6663 19.0321 23.4886 18.9655 23.3291 18.8674C20.8466 17.3379 17.9245 16.742 15.2136 16.6485V16.6471ZM9.22288 22.3717C10.5446 22.0508 12.8259 21.7284 15.238 21.8414C17.6717 21.9559 20.045 22.5057 21.7374 23.7534C22.0408 23.9773 22.4235 24.0749 22.8011 24.0248C23.1786 23.9747 23.5203 23.7809 23.7508 23.4861C23.9813 23.1913 24.0818 22.8196 24.0302 22.4528C23.9786 22.086 23.7792 21.7541 23.4757 21.5302C21.1196 19.7941 18.074 19.18 15.376 19.053C12.6564 18.926 10.0935 19.2833 8.52611 19.6643C8.34031 19.7062 8.16494 19.7835 8.01025 19.8919C7.85555 20.0003 7.72462 20.1375 7.62509 20.2956C7.52556 20.4536 7.45942 20.6294 7.43054 20.8125C7.40166 20.9957 7.41061 21.1826 7.45687 21.3623C7.50313 21.5421 7.58577 21.7111 7.69998 21.8595C7.81418 22.0079 7.95766 22.1327 8.12205 22.2266C8.28644 22.3206 8.46844 22.3818 8.65744 22.4067C8.84644 22.4316 9.03866 22.4197 9.22288 22.3717Z" fill="#10254C"/>
</svg>
