<svg width="29" height="27" viewBox="0 0 29 27" fill="none" xmlns="http://www.w3.org/2000/svg">
<path fill-rule="evenodd" clip-rule="evenodd" d="M4.04146 6.34483C4.88514 6.34483 5.69427 6.0313 6.29084 5.47322C6.88742 4.91513 7.22257 4.15821 7.22257 3.36896C7.22257 2.57971 6.88742 1.82278 6.29084 1.2647C5.69427 0.706611 4.88514 0.393082 4.04146 0.393082C3.19778 0.393082 2.38865 0.706611 1.79208 1.2647C1.1955 1.82278 0.860352 2.57971 0.860352 3.36896C0.860352 4.15821 1.1955 4.91513 1.79208 5.47322C2.38865 6.0313 3.19778 6.34483 4.04146 6.34483ZM7.22257 26.5808V8.72553H0.860352V26.5808H7.22257ZM9.76746 8.72553H15.4935V11.042C16.4045 9.92184 18.3514 8.72553 21.8557 8.72553C27.3654 8.72553 28.8541 13.8678 28.8541 17.058V26.5808H22.4919V17.058C22.4919 15.8676 21.8557 13.4869 19.3108 13.4869C17.5039 13.4869 16.2315 14.6868 15.4935 15.8093V26.5808H9.76746V8.72553Z" fill="#10254C"/>
</svg>
