<svg width="16" height="28" viewBox="0 0 16 28" fill="none" xmlns="http://www.w3.org/2000/svg">
<path d="M10.2568 0.047905C8.77489 0.047905 7.35369 0.636583 6.30584 1.68444C5.25799 2.73229 4.66931 4.15348 4.66931 5.63537V9.98118H1.56516C1.40051 9.98118 1.2426 10.0466 1.12617 10.163C1.00974 10.2794 0.944336 10.4374 0.944336 10.602V15.5686C0.944336 15.7333 1.00974 15.8912 1.12617 16.0076C1.2426 16.1241 1.40051 16.1895 1.56516 16.1895H4.66931V26.7436C4.66931 26.9082 4.73472 27.0661 4.85115 27.1826C4.96758 27.299 5.12549 27.3644 5.29014 27.3644H10.2568C10.4214 27.3644 10.5793 27.299 10.6958 27.1826C10.8122 27.0661 10.8776 26.9082 10.8776 26.7436V16.1895H13.9818C14.1202 16.1894 14.2547 16.1431 14.3638 16.0578C14.473 15.9726 14.5504 15.8532 14.584 15.7189L15.8256 10.7522C15.8484 10.6607 15.8501 10.5652 15.8305 10.473C15.8109 10.3808 15.7706 10.2942 15.7125 10.2199C15.6545 10.1455 15.5803 10.0854 15.4955 10.0441C15.4108 10.0027 15.3177 9.9812 15.2234 9.98118H10.8776V8.11869C10.8776 7.62472 11.0738 7.15099 11.4231 6.80171C11.7724 6.45243 12.2461 6.2562 12.7401 6.2562H15.2234C15.3881 6.2562 15.546 6.19079 15.6624 6.07436C15.7788 5.95793 15.8442 5.80002 15.8442 5.63537V0.668734C15.8442 0.50408 15.7788 0.34617 15.6624 0.229742C15.546 0.113314 15.3881 0.047905 15.2234 0.047905H10.2568Z" fill="#10254C"/>
</svg>
