<svg width="33" height="33" viewBox="0 0 33 33" fill="none" xmlns="http://www.w3.org/2000/svg">
<path d="M16.3098 0.66001C12.5588 0.656768 8.92926 2.02445 6.07147 4.51799C3.21369 7.01154 1.31445 10.468 0.714061 14.268C0.113669 18.068 0.851359 21.9633 2.79496 25.2559C4.73855 28.5485 7.76103 31.0232 11.3208 32.2366C12.1083 32.3767 12.3583 31.9018 12.3583 31.4741C12.3583 31.0863 12.3669 30.0127 12.3583 28.6574C7.96563 29.6337 7.05894 26.5221 7.05894 26.5221C6.76901 25.5426 6.14718 24.702 5.30589 24.1522C3.87328 23.1464 5.41366 23.1656 5.41366 23.1656C5.91391 23.2362 6.39184 23.4232 6.81095 23.7123C7.23007 24.0013 7.5793 24.3848 7.832 24.8335C8.04583 25.2332 8.33471 25.5854 8.68195 25.8698C9.02919 26.1542 9.42791 26.3652 9.85507 26.4905C10.2822 26.6158 10.7293 26.6531 11.1706 26.6C11.6118 26.5469 12.0385 26.4047 12.4258 26.1814C12.4983 25.3622 12.8535 24.5966 13.4274 24.0224C9.92272 23.611 6.23702 22.2233 6.23702 16.0118C6.21474 14.4019 6.79723 12.8451 7.86361 11.6643C7.38045 10.2675 7.43545 8.73395 8.01736 7.37733C8.01736 7.37733 9.34508 6.94229 12.3569 9.0408C14.9449 8.31228 17.6762 8.31228 20.2642 9.0408C23.2846 6.94376 24.6009 7.37733 24.6009 7.37733C25.1828 8.73406 25.2388 10.2678 24.7575 11.6643C25.8241 12.8459 26.4057 14.4042 26.3812 16.0147C26.3812 22.2424 22.6898 23.6095 19.1736 24.0077C19.5516 24.3973 19.8437 24.8656 20.0301 25.3811C20.2166 25.8965 20.293 26.4471 20.2542 26.9954V31.48C20.2542 31.9136 20.5085 32.3929 21.3103 32.2351C24.87 31.0206 27.8919 28.5448 29.8346 25.2513C31.7772 21.9579 32.5137 18.0621 31.9118 14.2621C31.31 10.462 29.4094 7.00613 26.5504 4.51364C23.6914 2.02116 20.0611 0.655014 16.3098 0.66001Z" fill="#10254C"/>
</svg>
