<svg width="30" height="30" viewBox="0 0 30 30" fill="none" xmlns="http://www.w3.org/2000/svg">
<path fill-rule="evenodd" clip-rule="evenodd" d="M13.882 0.881237C10.3509 1.25328 7.15101 2.77944 4.76373 5.23019C2.68944 7.3596 1.35647 9.99769 0.827117 13.0211C0.652603 14.0181 0.636394 16.3391 0.797014 17.3336C1.0563 18.9385 1.45887 20.2257 2.1384 21.6226C5.08892 27.6875 11.7527 30.8785 18.3261 29.3742C21.9355 28.5481 25.1967 26.2982 27.1569 23.2816C27.5668 22.6508 28.2271 21.4222 28.2271 21.2904C28.2271 21.2124 27.853 21.0924 26.8434 20.8464C26.1533 20.6782 22.4844 19.8418 21.8103 19.699C21.645 19.6639 21.6156 19.6858 21.3328 20.0535C20.2227 21.497 18.6528 22.4916 16.8999 22.8619C14.2779 23.4158 11.6493 22.6749 9.77301 20.8529C9.17508 20.2723 8.70141 19.6777 8.80923 19.643C8.95302 19.5967 23.6953 16.2759 25.0644 15.9813C25.8254 15.8176 26.9691 15.568 27.6059 15.4266C28.2427 15.2852 28.9479 15.1287 29.1731 15.0788L29.5826 14.988V14.7118C29.5826 14.1988 29.4653 13.2458 29.3202 12.5793C28.6773 9.62628 27.4711 7.28987 25.5457 5.26788C23.3017 2.9113 20.5501 1.48155 17.2706 0.967909C16.5734 0.858704 14.5799 0.807704 13.882 0.881237ZM16.5082 7.53819C17.5795 7.72853 18.8417 8.27531 19.766 8.94944C20.2313 9.28887 20.8899 9.91627 21.2878 10.3994C21.4795 10.6321 21.496 10.673 21.4092 10.7004C21.1943 10.7682 7.58187 13.9623 7.50777 13.9623C7.44825 13.9623 7.43757 13.9086 7.46389 13.741C7.54138 13.2465 7.80366 12.4572 8.08937 11.8589C9.61594 8.66193 13.0148 6.91759 16.5082 7.53819Z" fill="#10254C"/>
</svg>
